<?xml version="1.0" encoding="iso-8859-1"?>
<!-- Generator: Adobe Illustrator 19.0.0, SVG Export Plug-In . SVG Version: 6.00 Build 0)  -->
<svg version="1.1" id="Layer_1" xmlns="http://www.w3.org/2000/svg" xmlns:xlink="http://www.w3.org/1999/xlink" x="0px" y="0px"
	 viewBox="0 0 512 512" style="enable-background:new 0 0 512 512;" xml:space="preserve">
<rect x="138.4" y="74.517" style="fill:#FFFFFF;" width="304.153" height="429.87"/>
<path style="fill:#FFC853;" d="M37.507,125.614l167.82,90.364l25.2,35.707h-44.427L18.28,161.32
	c-9.86-5.31-13.549-17.606-8.24-27.466l0,0C15.349,123.993,27.647,120.304,37.507,125.614z"/>
<g>
	<polygon style="fill:#E0E0E0;" points="442.552,504.392 359.416,504.392 442.552,421.256 	"/>
	<polygon style="fill:#E0E0E0;" points="442.552,400.98 442.552,422.27 360.43,504.392 339.14,504.392 339.14,400.98 	"/>
</g>
<polygon style="fill:#FFFFFF;" points="359.416,421.256 359.416,504.392 442.552,421.256 "/>
<rect x="442.553" y="74.517" style="fill:#E0E0E0;" width="30.415" height="429.87"/>
<path d="M222.041,173.372h-45.623v-45.623h45.623V173.372z M191.625,158.164h15.208v-15.208h-15.208V158.164z"/>
<path d="M222.041,329.673h-45.623V284.05h45.623V329.673z M191.625,314.465h15.208v-15.208h-15.208V314.465z"/>
<path d="M222.041,408.583h-45.623V362.96h45.623V408.583z M191.625,393.376h15.208v-15.208h-15.208V393.376z"/>
<path style="fill:#A0815C;" d="M37.507,125.614c-9.86-5.309-22.158-1.62-27.466,8.241l0,0c-5.309,9.86-1.62,22.158,8.241,27.466
	l18.746,10.094l19.227-35.707L37.507,125.614z"/>
<path style="fill:#966EC5;" d="M504.396,41.065c0-18.477-14.98-33.457-33.457-33.457s-33.457,14.98-33.457,33.457
	s14.98,33.457,33.457,33.457c0.681,0,1.357-0.026,2.028-0.067v227.168h31.429C504.396,301.623,504.396,42.091,504.396,41.065z"/>
<g>
	<polygon style="fill:#E0E0E0;" points="413.15,421.256 359.416,474.99 359.416,504.392 442.552,421.256 	"/>
	<rect x="138.4" y="74.517" style="fill:#E0E0E0;" width="304.153" height="20.277"/>
</g>
<g>
	<polygon style="fill:#898890;" points="442.552,422.27 442.552,449.928 388.088,504.392 360.43,504.392 	"/>
	<rect x="442.553" y="74.517" style="fill:#898890;" width="30.415" height="20.277"/>
</g>
<path style="fill:#966EC5;" d="M437.482,41.065L437.482,41.065c0-18.477,14.98-33.457,33.457-33.457H138.399
	c-18.477,0-33.457,14.98-33.457,33.457l0,0c0,18.477,14.98,33.457,33.457,33.457h330.513c0,0,0-0.038,0-0.067
	C451.379,73.406,437.482,58.861,437.482,41.065z"/>
<path style="fill:#715599;" d="M472.967,65.046c-6.25-6.079-10.138-14.574-10.138-23.98l0,0c0-13.991,8.591-25.971,20.784-30.966
	c-3.909-1.602-8.187-2.491-12.673-2.491c-18.477,0-33.457,14.98-33.457,33.457s14.98,33.457,33.457,33.457
	c0.681,0,1.357-0.026,2.028-0.067V65.046z"/>
<polygon style="fill:#A0815C;" points="205.327,215.977 186.101,251.684 230.528,251.684 "/>
<path style="fill:#FFFFFF;" d="M232.686,39.544h-14.194V24.337h14.194V39.544z M203.285,39.544h-63.872V24.337h63.872V39.544z"/>
<rect x="246.881" y="141.938" width="160.187" height="15.208"/>
<rect x="246.881" y="221.017" width="160.187" height="15.208"/>
<rect x="246.881" y="299.256" width="160.187" height="15.208"/>
<path d="M222.041,127.749h-45.623v45.623h45.623V127.749z M206.833,158.164h-15.208v-15.208h15.208V158.164z"/>
<path d="M222.041,284.05h-45.623v45.623h45.623V284.05z M206.833,314.465h-15.208v-15.208h15.208V314.465z"/>
<rect x="246.881" y="379.177" width="160.187" height="15.208"/>
<path d="M176.418,408.583h45.623V362.96h-45.623V408.583z M191.625,378.168h15.208v15.208h-15.208V378.168z"/>
<path d="M245.201,259.288l-34.694-49.156L41.112,118.919c-13.536-7.29-30.478-2.208-37.767,11.33
	c-3.53,6.558-4.297,14.096-2.156,21.23s6.93,13.006,13.487,16.537l169.509,91.272H245.201z M180.333,239.942L47.326,168.324
	l12.016-22.317l133.007,71.618L180.333,239.942z M215.854,244.08h-20.478l8.862-16.458L215.854,244.08z M15.755,147.108
	c-0.972-3.242-0.625-6.669,0.98-9.651c3.313-6.151,11.014-8.466,17.166-5.149l12.052,6.489l-12.016,22.317l-12.051-6.489
	C18.905,153.02,16.727,150.351,15.755,147.108z"/>
<path d="M512,41.065c0-22.641-18.419-41.061-41.061-41.061H138.399c-22.641,0-41.061,18.42-41.061,41.061
	c0,20.043,14.438,36.766,33.457,40.343v68.138h15.208V82.126h288.945v331.527h-83.135v83.135h-205.81v-247.76h-15.208v262.968
	h304.153h15.208h30.415V309.227H512V41.065z M138.399,66.918c-14.256,0-25.853-11.597-25.853-25.853s11.597-25.853,25.853-25.853
	h300.663c-0.288,0.354-0.566,0.717-0.841,1.081c-0.063,0.082-0.129,0.161-0.191,0.244c-0.368,0.493-0.725,0.996-1.071,1.506
	c-0.106,0.157-0.208,0.319-0.312,0.479c-0.236,0.358-0.469,0.717-0.694,1.083c-0.125,0.203-0.244,0.409-0.365,0.613
	c-0.196,0.332-0.389,0.664-0.577,1.002c-0.122,0.219-0.24,0.44-0.358,0.661c-0.177,0.336-0.351,0.673-0.52,1.013
	c-0.111,0.223-0.22,0.446-0.327,0.671c-0.168,0.356-0.329,0.716-0.488,1.077c-0.093,0.214-0.19,0.427-0.28,0.643
	c-0.174,0.417-0.338,0.839-0.499,1.263c-0.062,0.163-0.129,0.324-0.19,0.49c-0.215,0.589-0.417,1.183-0.605,1.784
	c-0.043,0.135-0.078,0.272-0.119,0.407c-0.142,0.469-0.279,0.942-0.404,1.418c-0.058,0.222-0.109,0.446-0.164,0.669
	c-0.097,0.397-0.192,0.796-0.277,1.198c-0.053,0.245-0.099,0.493-0.148,0.739c-0.075,0.388-0.145,0.778-0.21,1.17
	c-0.042,0.253-0.081,0.507-0.118,0.761c-0.058,0.397-0.107,0.798-0.153,1.199c-0.028,0.247-0.058,0.495-0.082,0.743
	c-0.042,0.438-0.073,0.878-0.1,1.319c-0.013,0.214-0.032,0.427-0.043,0.642c-0.031,0.656-0.051,1.316-0.051,1.979
	c0,0.629,0.015,1.254,0.044,1.877c0.01,0.227,0.03,0.45,0.045,0.676c0.024,0.393,0.047,0.787,0.082,1.177
	c0.024,0.273,0.06,0.542,0.089,0.814c0.037,0.339,0.073,0.677,0.119,1.014c0.041,0.295,0.089,0.587,0.136,0.88
	c0.049,0.307,0.095,0.614,0.151,0.92c0.056,0.307,0.12,0.61,0.182,0.916c0.059,0.287,0.117,0.573,0.181,0.858
	c0.071,0.312,0.15,0.622,0.228,0.933c0.069,0.272,0.137,0.543,0.211,0.812c0.086,0.313,0.178,0.624,0.271,0.933
	c0.079,0.263,0.158,0.524,0.243,0.785c0.1,0.309,0.205,0.617,0.312,0.924c0.09,0.257,0.181,0.512,0.276,0.766
	c0.113,0.302,0.228,0.603,0.348,0.901c0.101,0.254,0.206,0.507,0.312,0.758c0.124,0.292,0.249,0.583,0.38,0.872
	c0.115,0.254,0.233,0.507,0.353,0.759c0.133,0.279,0.267,0.557,0.406,0.832c0.131,0.26,0.266,0.516,0.401,0.773
	c0.138,0.261,0.276,0.521,0.42,0.778c0.151,0.271,0.308,0.538,0.465,0.805c0.139,0.235,0.276,0.472,0.42,0.705
	c0.178,0.289,0.363,0.574,0.548,0.858c0.133,0.204,0.263,0.411,0.399,0.612c0.218,0.322,0.444,0.639,0.67,0.954
	c0.113,0.156,0.221,0.315,0.336,0.47c0.289,0.39,0.586,0.774,0.888,1.154c0.06,0.075,0.117,0.153,0.177,0.228
	c0.029,0.037,0.057,0.074,0.086,0.111H138.399V66.918z M424.194,428.86l-57.174,57.174V428.86H424.194z M377.775,496.788
	l57.174-57.174v57.174H377.775z M465.363,496.788h-15.208V82.126h15.208v227.101V496.788z M496.792,294.019h-16.221V74.522v-8.144
	l-8.063,0.487c-0.519,0.031-1.041,0.054-1.568,0.054c-0.396,0-0.79-0.012-1.182-0.03l-0.392-0.023
	c-2.125-0.127-4.179-0.511-6.131-1.119c-2.416-0.755-4.68-1.856-6.735-3.245c-0.006-0.004-0.013-0.009-0.019-0.013
	c-0.334-0.226-0.662-0.459-0.984-0.701c-0.019-0.014-0.038-0.029-0.057-0.044c-0.308-0.231-0.61-0.469-0.907-0.714
	c-0.031-0.026-0.063-0.054-0.094-0.079c-0.281-0.233-0.557-0.472-0.827-0.717c-0.046-0.042-0.09-0.084-0.136-0.126
	c-0.252-0.232-0.502-0.468-0.745-0.711c-0.058-0.058-0.115-0.116-0.171-0.173c-0.226-0.229-0.449-0.462-0.667-0.7
	c-0.068-0.074-0.135-0.149-0.202-0.224c-0.202-0.225-0.399-0.453-0.593-0.684c-0.076-0.091-0.151-0.184-0.226-0.276
	c-0.178-0.219-0.353-0.441-0.524-0.666c-0.083-0.109-0.164-0.219-0.245-0.33c-0.156-0.212-0.309-0.427-0.458-0.645
	c-0.088-0.128-0.174-0.255-0.26-0.385c-0.136-0.206-0.269-0.414-0.399-0.622c-0.089-0.144-0.178-0.288-0.265-0.434
	c-0.119-0.2-0.234-0.401-0.348-0.604c-0.089-0.16-0.178-0.32-0.265-0.483c-0.102-0.194-0.202-0.388-0.3-0.585
	c-0.087-0.175-0.174-0.35-0.258-0.527c-0.089-0.19-0.174-0.38-0.26-0.573c-0.083-0.187-0.165-0.374-0.243-0.564
	c-0.077-0.187-0.15-0.375-0.223-0.564c-0.077-0.199-0.154-0.396-0.225-0.597c-0.067-0.186-0.128-0.374-0.191-0.562
	c-0.068-0.206-0.138-0.412-0.201-0.619c-0.058-0.189-0.109-0.379-0.162-0.57c-0.059-0.211-0.12-0.422-0.173-0.635
	c-0.049-0.195-0.091-0.391-0.136-0.588c-0.048-0.211-0.098-0.422-0.141-0.635c-0.042-0.208-0.076-0.418-0.113-0.627
	c-0.036-0.206-0.075-0.41-0.106-0.617c-0.033-0.227-0.06-0.457-0.087-0.686c-0.023-0.192-0.052-0.383-0.071-0.576
	c-0.026-0.27-0.044-0.542-0.062-0.815c-0.01-0.156-0.026-0.31-0.034-0.466c-0.021-0.431-0.032-0.864-0.032-1.301
	c0-14.256,11.597-25.853,25.853-25.853c14.256,0,25.853,11.597,25.853,25.853v252.955H496.792z"/>
<g>
</g>
<g>
</g>
<g>
</g>
<g>
</g>
<g>
</g>
<g>
</g>
<g>
</g>
<g>
</g>
<g>
</g>
<g>
</g>
<g>
</g>
<g>
</g>
<g>
</g>
<g>
</g>
<g>
</g>
</svg>
