<svg height="512" viewBox="0 0 60 60" width="512" xmlns="http://www.w3.org/2000/svg"><g id="Page-1" fill="none" fill-rule="evenodd"><g id="044---Website-Marketing" fill-rule="nonzero"><path id="Shape" d="m59 4v9h-58v-9c0-1.65685425 1.34314575-3 3-3h52c1.6568542 0 3 1.34314575 3 3z" fill="#e8edfc"/><path id="Shape" d="m56 1h-3c1.6568542 0 3 1.34314575 3 3v9h3v-9c0-1.65685425-1.3431458-3-3-3z" fill="#cad9fc"/><path id="Shape" d="m59 13v38c0 1.6568542-1.3431458 3-3 3h-52c-1.65685425 0-3-1.3431458-3-3v-38z" fill="#fff"/><path id="Shape" d="m56 13v38c0 1.6568542-1.3431458 3-3 3h3c1.6568542 0 3-1.3431458 3-3v-38z" fill="#e8edfc"/><circle id="Oval" cx="7" cy="7" fill="#e8edfc" r="2"/><circle id="Oval" cx="15" cy="7" fill="#e8edfc" r="2"/><circle id="Oval" cx="23" cy="7" fill="#e8edfc" r="2"/><rect id="Rectangle-path" fill="#e8edfc" height="4" rx="2" width="14" x="41" y="5"/><path id="Shape" d="m13 34v10h-3c-2.76142375 0-5-2.2385763-5-5s2.23857625-5 5-5z" fill="#e8edfc"/><path id="Shape" d="m31 24v30c-2-10-11-10-11-10h-7v-10h7s9 0 11-10z" fill="#cad9fc"/><path id="Shape" d="m28 30.3v17.41c1.5573344 1.7822519 2.5950988 3.9580979 3 6.29v-30c-.4031578 2.3354354-1.4410239 4.5149542-3 6.3z" fill="#a4c2f7"/><rect id="Rectangle-path" fill="#e8edfc" height="36" rx="2.5" width="5" x="31" y="21"/><path id="Shape" d="m17 50v6c0 1.6568542-1.3431458 2.9999999-3 2.9999999s-3-1.3431457-3-2.9999999v-6z" fill="#e8edfc"/><path id="Rectangle-path" d="m11 44h6v6h-6z" fill="#cad9fc"/><path id="Shape" d="m4 54h3c-1.65685425 0-3-1.3431458-3-3v-47c0-1.65685425 1.34314575-3 3-3h-3c-1.65685425 0-3 1.34314575-3 3v47c0 1.6568542 1.34314575 3 3 3z" fill="#fff"/><path id="Rectangle-path" d="m0 43h2v8h-2z" fill="#fff"/><g fill="#428dff"><path id="Shape" d="m52.615 23.077-12 5c-.5097588.2126296-.7506296.7982412-.538 1.308s.7982412.7506296 1.308.538l12-5c.5097588-.2126296.7506296-.7982412.538-1.308s-.7982412-.7506296-1.308-.538z"/><path id="Shape" d="m53.848 31.012-13 2c-.3636834.0415811-.6755842.2785493-.8131282.6177783-.1375439.3392289-.0787477.7265001.1532824 1.0096196.2320301.2831196.600209.4168368.9598458.3486021l13-2c.3636834-.0415811.6755842-.2785493.8131282-.6177783.1375439-.3392289.0787477-.7265001-.1532824-1.0096196-.2320301-.2831196-.600209-.4168368-.9598458-.3486021z"/><path id="Shape" d="m41.152 43.012c-.3596368-.0682347-.7278157.0654825-.9598458.3486021-.2320301.2831195-.2908263.6703907-.1532824 1.0096196.137544.339229.4494448.5761972.8131282.6177783l13 2c.5344731.0611081 1.0215158-.3115652 1.1022638-.8434255.0807481-.5318604-.2737376-1.0322961-.8022638-1.1325745z"/><path id="Shape" d="m56 39c0-.5522847-.4477153-1-1-1h-14c-.5522847 0-1 .4477153-1 1s.4477153 1 1 1h14c.5522847 0 1-.4477153 1-1z"/><path id="Shape" d="m1.02 48c-.55228473.0027614-1.00223852-.4427153-1.00499994-.995-.00276143-.5522847.44271521-1.0022385.99499994-1.005h.01c.55228475 0 1 .4477153 1 1s-.44771525 1-1 1z"/><path id="Shape" d="m56 0h-52c-2.209139 0-4 1.790861-4 4v39c0 .5522847.44771525 1 1 1s1-.4477153 1-1v-29h56v37c0 1.1045695-.8954305 2-2 2h-2.8l-11.815-4.923c-.3297561-.1375473-.707844-.0887233-.9918414.1280802-.2839975.2168036-.4307587.5686492-.385.923.0457586.3543508.2770853.6573725.6068414.7949198l7.385 3.077h-11v-29.5c0-1.9329966-1.5670034-3.5-3.5-3.5s-3.5 1.5670034-3.5 3.5v.38c-1.839 8.964-9.669 9.12-10 9.12h-10c-3.3137085 0-6 2.6862915-6 6s2.6862915 6 6 6v8h-6c-1.1045695 0-2-.8954305-2-2 0-.5522847-.44771525-1-1-1s-1 .4477153-1 1c0 2.209139 1.790861 4 4 4h6v1c0 2.209139 1.790861 4 4 4s4-1.790861 4-4v-1h12.051c.2387865 1.7223098 1.7112159 3.0046811 3.45 3.0046811s3.2112135-1.2823713 3.45-3.0046811h19.049c2.209139 0 4-1.790861 4-4v-47c0-2.209139-1.790861-4-4-4zm-45 43h-1c-2.209139 0-4-1.790861-4-4s1.790861-4 4-4h2v8zm5 13c0 1.1045695-.8954305 2-2 2s-2-.8954305-2-2v-5h4zm0-7h-4v-4h4zm2 4v-8h2c4.663716.1915771 8.6318295 3.4595313 9.714 8zm12-4.3c-2.2415054-3.3775607-5.9516496-5.4923429-10-5.7h-6v-8h6c4.0483504-.2076571 7.7584946-2.3224393 10-5.7zm5 5.8c0 .8284271-.6715729 1.5-1.5 1.5s-1.5-.6715729-1.5-1.5v-31c0-.8284271.6715729-1.5 1.5-1.5s1.5.6715729 1.5 1.5zm23-42.5h-56v-8c0-1.1045695.8954305-2 2-2h52c1.1045695 0 2 .8954305 2 2z"/><path id="Shape" d="m7 4c-1.65685425 0-3 1.34314575-3 3s1.34314575 3 3 3 3-1.34314575 3-3-1.34314575-3-3-3zm0 4c-.55228475 0-1-.44771525-1-1s.44771525-1 1-1 1 .44771525 1 1-.44771525 1-1 1z"/><path id="Shape" d="m15 4c-1.6568542 0-3 1.34314575-3 3s1.3431458 3 3 3 3-1.34314575 3-3-1.3431458-3-3-3zm0 4c-.5522847 0-1-.44771525-1-1s.4477153-1 1-1 1 .44771525 1 1-.4477153 1-1 1z"/><path id="Shape" d="m23 4c-1.6568542 0-3 1.34314575-3 3s1.3431458 3 3 3 3-1.34314575 3-3-1.3431458-3-3-3zm0 4c-.5522847 0-1-.44771525-1-1s.4477153-1 1-1 1 .44771525 1 1-.4477153 1-1 1z"/><path id="Shape" d="m53 4h-10c-1.6568542.00000002-3 1.34314577-3 3s1.3431458 2.99999998 3 3h10c1.6568542-.00000002 3-1.34314577 3-3s-1.3431458-2.99999998-3-3zm0 4h-10c-.5522847 0-1-.44771525-1-1s.4477153-1 1-1h10c.5522847 0 1 .44771525 1 1s-.4477153 1-1 1z"/><path id="Shape" d="m26.52 35.212c-1.9995046 1.1077727-4.2351214 1.7208529-6.52 1.788h-3c-.5522847 0-1 .4477153-1 1s.4477153 1 1 1h3c2.6223272-.0548854 5.1909842-.7533678 7.48-2.034.3216365-.1670712.5276965-.4950978.5385861-.8573743.0108897-.3622764-.1750958-.7020875-.4861167-.8881758-.3110208-.1860882-.698386-.1893211-1.0124694-.0084499z"/></g></g></g></svg>